<svg width="30" height="24" viewBox="0 0 30 24" fill="none" xmlns="http://www.w3.org/2000/svg">
<path d="M2.13269 6.63419V6.98223H2.48073H27.5392H27.8873V6.63419V5.06804C27.8873 4.28345 27.5756 3.53099 27.0208 2.97621C26.466 2.42142 25.7136 2.10974 24.929 2.10974H5.09099C4.3064 2.10974 3.55394 2.42142 2.99916 2.97621C2.44437 3.53099 2.13269 4.28345 2.13269 5.06804V6.63419ZM27.8873 8.7224V8.37437H27.5392H2.48073H2.13269V8.7224V18.6414C2.13269 19.426 2.44437 20.1784 2.99916 20.7332C3.55394 21.288 4.3064 21.5997 5.09099 21.5997H24.929C25.7136 21.5997 26.466 21.288 27.0208 20.7332C27.5756 20.1784 27.8873 19.426 27.8873 18.6414V8.7224ZM0.740552 5.06804C0.740552 3.91423 1.1989 2.80768 2.01476 1.99182C2.83063 1.17595 3.93718 0.717603 5.09099 0.717603H24.929C26.0828 0.717603 27.1893 1.17595 28.0052 1.99182C28.8211 2.80768 29.2794 3.91423 29.2794 5.06804V18.6414C29.2794 19.7952 28.8211 20.9017 28.0052 21.7176C27.1893 22.5335 26.0828 22.9918 24.929 22.9918H5.09099C3.93718 22.9918 2.83063 22.5335 2.01476 21.7176C1.1989 20.9017 0.740552 19.7952 0.740552 18.6414V5.06804ZM20.2305 15.3351H23.3628C23.5474 15.3351 23.7245 15.4084 23.855 15.5389C23.9855 15.6695 24.0589 15.8465 24.0589 16.0311C24.0589 16.2157 23.9855 16.3928 23.855 16.5233C23.7245 16.6539 23.5474 16.7272 23.3628 16.7272H20.2305C20.0459 16.7272 19.8688 16.6539 19.7383 16.5233C19.6078 16.3928 19.5344 16.2157 19.5344 16.0311C19.5344 15.8465 19.6078 15.6695 19.7383 15.5389C19.8688 15.4084 20.0459 15.3351 20.2305 15.3351Z" fill="#4CAF4F" stroke="#4CAF4F" stroke-width="0.696069"/>
</svg>
